<?xml version="1.0" standalone="no"?>
<!DOCTYPE svg PUBLIC "-//W3C//DTD SVG 20010904//EN"
 "http://www.w3.org/TR/2001/REC-SVG-20010904/DTD/svg10.dtd">
<svg version="1.0" xmlns="http://www.w3.org/2000/svg"
 width="249.000000pt" height="446.000000pt" viewBox="0 0 249.000000 446.000000"
 preserveAspectRatio="xMidYMid meet">

<g transform="translate(0.000000,446.000000) scale(0.100000,-0.100000)"
fill="#000000" stroke="none">
<path d="M1228 4405 c-3 -6 -279 -984 -612 -2175 -334 -1191 -609 -2173 -612
-2183 -5 -16 10 -17 262 -15 l267 3 91 352 91 353 515 0 515 0 84 -322 c47
-178 89 -338 93 -356 l9 -32 264 0 c146 0 265 2 265 5 0 6 -1205 4313 -1219
4355 -4 13 -10 20 -13 15z m56 -1840 c26 -121 112 -473 191 -782 80 -309 145
-564 145 -567 0 -3 -175 -6 -390 -6 -214 0 -390 3 -390 6 0 3 65 254 144 557
79 304 166 659 192 790 26 131 50 234 54 230 4 -4 29 -107 54 -228z"/>
</g>
</svg>
