<?xml version="1.0" standalone="no"?>
<!DOCTYPE svg PUBLIC "-//W3C//DTD SVG 20010904//EN"
 "http://www.w3.org/TR/2001/REC-SVG-20010904/DTD/svg10.dtd">
<svg version="1.0" xmlns="http://www.w3.org/2000/svg"
 width="1920.000000pt" height="1080.000000pt" viewBox="0 0 1920.000000 1080.000000"
 preserveAspectRatio="xMidYMid meet">

<g transform="translate(0.000000,1080.000000) scale(0.100000,-0.100000)"
fill="#000000" stroke="none">
<path d="M8600 5627 l0 -2747 311 0 311 0 -4 1559 c-1 858 -2 1559 -1 1558 0
-1 67 -128 148 -282 81 -154 287 -535 458 -847 l312 -567 19 37 c10 20 143
264 296 542 152 278 350 646 440 818 90 172 165 311 166 309 2 -2 -1 -149 -6
-328 -5 -178 -10 -881 -10 -1561 l0 -1238 310 0 310 0 0 2743 c0 1782 -4 2737
-10 2727 -5 -8 -348 -635 -762 -1393 -633 -1157 -755 -1375 -765 -1361 -6 9
-348 633 -759 1388 -411 754 -751 1375 -755 1381 -5 5 -9 -1191 -9 -2738z"/>
<path d="M1050 5619 c-421 -1491 -766 -2717 -768 -2725 -3 -12 50 -14 330 -14
l334 0 114 440 114 440 641 0 641 0 116 -437 115 -438 331 -3 c232 -1 332 1
332 8 0 13 -1517 5397 -1528 5423 -5 12 -269 -912 -772 -2694z m834 386 c36
-165 144 -603 240 -974 97 -371 176 -676 176 -678 0 -2 -218 -3 -485 -3 -267
0 -485 1 -485 3 0 1 79 301 175 667 115 434 198 774 240 979 36 172 65 316 66
320 2 15 12 -30 73 -314z"/>
<path d="M4770 8215 c-260 -43 -470 -146 -635 -312 -196 -198 -299 -451 -312
-773 -14 -335 94 -683 327 -1055 95 -152 187 -276 480 -645 379 -479 484 -626
599 -842 107 -200 151 -360 151 -547 0 -129 -18 -211 -67 -305 -103 -198 -310
-306 -585 -306 -202 0 -301 28 -551 153 -98 49 -179 88 -181 86 -10 -12 -272
-527 -274 -539 -4 -20 124 -97 249 -151 420 -182 865 -214 1243 -88 423 141
707 475 792 934 25 134 26 410 1 543 -36 194 -133 440 -247 627 -66 108 -214
311 -573 783 -421 555 -480 635 -555 765 -123 209 -162 335 -162 516 0 189 45
316 150 421 106 106 254 159 443 160 162 0 318 -44 484 -136 l61 -34 80 152
c153 293 184 357 177 368 -12 19 -199 108 -305 145 -177 61 -319 86 -525 90
-126 3 -206 0 -265 -10z"/>
<path d="M13776 8214 c-246 -44 -427 -145 -616 -341 -125 -130 -207 -248 -291
-418 -164 -337 -270 -772 -321 -1320 -18 -189 -18 -1041 0 -1220 52 -534 143
-930 287 -1255 134 -302 346 -557 576 -694 335 -199 780 -199 1121 2 198 117
393 335 522 587 164 320 276 756 332 1295 21 212 30 868 15 1122 -67 1104
-368 1817 -896 2121 -200 115 -492 164 -729 121z m309 -616 c121 -30 271 -158
358 -304 162 -274 263 -677 309 -1239 15 -195 15 -875 0 -1070 -56 -684 -206
-1168 -432 -1394 -179 -179 -409 -207 -608 -75 -218 145 -383 504 -471 1026
-81 479 -92 1265 -25 1791 84 666 279 1095 556 1231 108 53 198 63 313 34z"/>
<path d="M6850 5525 l0 -2645 310 0 310 0 0 2645 0 2645 -310 0 -310 0 0
-2645z"/>
<path d="M15829 8108 c233 -839 1517 -5378 1521 -5378 3 0 349 1218 769 2707
420 1489 765 2713 768 2720 4 11 -59 13 -331 13 -185 0 -336 -2 -336 -4 0 -1
-164 -637 -364 -1412 -200 -775 -396 -1548 -435 -1718 -39 -171 -73 -311 -74
-312 -1 -1 -31 129 -66 289 -48 224 -393 1582 -792 3120 l-10 37 -334 0 -334
0 18 -62z"/>
</g>
</svg>
